<svg id="visual" viewBox="0 0 900 600" width="900" height="600" xmlns="http://www.w3.org/2000/svg" xmlns:xlink="http://www.w3.org/1999/xlink" version="1.1"><rect x="0" y="0" width="900" height="600" fill="#344f1f"></rect><defs><linearGradient id="grad1_0" x1="33.3%" y1="100%" x2="100%" y2="0%"><stop offset="20%" stop-color="#344f1f" stop-opacity="1"></stop><stop offset="80%" stop-color="#344f1f" stop-opacity="1"></stop></linearGradient></defs><defs><linearGradient id="grad2_0" x1="0%" y1="100%" x2="66.7%" y2="0%"><stop offset="20%" stop-color="#344f1f" stop-opacity="1"></stop><stop offset="80%" stop-color="#344f1f" stop-opacity="1"></stop></linearGradient></defs><g transform="translate(900, 600)"><path d="M-243.4 0C-238.6 -45.3 -233.7 -90.5 -210.8 -121.7C-187.8 -152.9 -146.7 -170 -108.5 -187.9C-70.3 -205.9 -35.2 -224.6 0 -243.4L0 0Z" fill="#F8991A"></path></g><g transform="translate(0, 0)"><path d="M243.4 0C220 32.5 196.6 65 179.3 103.5C161.9 142 150.6 186.5 121.7 210.8C92.8 235.1 46.4 239.2 0 243.4L0 0Z" fill="#F8991A"></path></g></svg>