<svg id="visual" viewBox="0 0 540 960" width="540" height="960" xmlns="http://www.w3.org/2000/svg" xmlns:xlink="http://www.w3.org/1999/xlink" version="1.1"><rect x="0" y="0" width="540" height="960" fill="#f4991A"></rect><defs><linearGradient id="grad1_0" x1="0%" y1="100%" x2="100%" y2="0%"><stop offset="30%" stop-color="#f4991a" stop-opacity="1"></stop><stop offset="70%" stop-color="#f4991a" stop-opacity="1"></stop></linearGradient></defs><defs><linearGradient id="grad2_0" x1="0%" y1="100%" x2="100%" y2="0%"><stop offset="30%" stop-color="#f4991a" stop-opacity="1"></stop><stop offset="70%" stop-color="#f4991a" stop-opacity="1"></stop></linearGradient></defs><g transform="translate(540, 960)"><path d="M-216 0C-201.6 -18.8 -187.1 -37.6 -181.7 -59C-176.2 -80.4 -179.7 -104.4 -172.3 -125.2C-165 -146 -146.9 -163.5 -127 -174.7C-107.1 -186 -85.4 -191 -64 -196.9C-42.5 -202.7 -21.3 -209.4 0 -216L0 0Z" fill="#344F1F"></path></g><g transform="translate(0, 0)"><path d="M216 0C213.3 22.5 210.6 45 204.5 66.4C198.3 87.9 188.7 108.2 174.7 127C160.8 145.7 142.6 163 121.1 166.7C99.6 170.3 74.8 160.5 54.1 166.4C33.4 172.4 16.7 194.2 0 216L0 0Z" fill="#344F1F"></path></g></svg>