<svg id="visual" viewBox="0 0 960 540" width="960" height="540" xmlns="http://www.w3.org/2000/svg" xmlns:xlink="http://www.w3.org/1999/xlink" version="1.1"><rect x="0" y="0" width="960" height="540" fill="#344F1F"></rect><path d="M0 413L32 417.2C64 421.3 128 429.7 192 421C256 412.3 320 386.7 384 393.2C448 399.7 512 438.3 576 457C640 475.7 704 474.3 768 452.7C832 431 896 389 928 368L960 347L960 541L928 541C896 541 832 541 768 541C704 541 640 541 576 541C512 541 448 541 384 541C320 541 256 541 192 541C128 541 64 541 32 541L0 541Z" fill="#f4991A" stroke-linecap="round" stroke-linejoin="miter"></path></svg>